<svg xmlns="http://w3.org" viewBox="0 0 24 24" width="100%" height="100%">
  <!-- Central Base and Post -->
  <path fill="currentColor" d="M12 2a1 1 0 011 1v2.5a4.5 4.5 0 01-2 0V3a1 1 0 011-1z"/>
  <path fill="currentColor" d="M3 20v1a1 1 0 001 1h16a1 1 0 001-1v-1H3z"/>
  <path fill="currentColor" d="M11 5.5h2a1 1 0 011 1v12a1 1 0 01-1 1h-2a1 1 0 01-1-1v-12a1 1 0 011-1z"/>
  
  <!-- Horizontal Balance Beam -->
  <path fill="currentColor" d="M21 7H3a1 1 0 000 2h18a1 1 0 000-2z"/>

  <!-- Left Scale Pan and Chains -->
  <circle cx="6" cy="11" r="1" fill="currentColor"/>
  <path fill="none" stroke="currentColor" stroke-width="1" d="M6 8l-3 4h6l-3-4z"/>
  <path fill="none" stroke="currentColor" stroke-width="1" d="M3 12h6v1a3 3 0 01-6 0v-1z"/>

  <!-- Right Scale Pan and Chains -->
  <circle cx="18" cy="11" r="1" fill="currentColor"/>
  <path fill="none" stroke="currentColor" stroke-width="1" d="M18 8l-3 4h6l-3-4z"/>
  <path fill="none" stroke="currentColor" stroke-width="1" d="M15 12h6v1a3 3 0 01-6 0v-1z"/>
</svg>
