<svg width="512" height="512" viewBox="0 0 512 512" fill="none" xmlns="http://www.w3.org/2000/svg">
  <defs>
    <linearGradient id="royalEmerald" x1="0%" y1="0%" x2="100%" y2="100%">
      <stop offset="0%" stop-color="#062E1C" />
      <stop offset="50%" stop-color="#031C11" />
      <stop offset="100%" stop-color="#010A06" />
    </linearGradient>
    
    <linearGradient id="chromeSilver" x1="0%" y1="0%" x2="100%" y2="100%">
      <stop offset="0%" stop-color="#FFFFFF" />
      <stop offset="30%" stop-color="#E2E8F0" />
      <stop offset="55%" stop-color="#94A3B8" />
      <stop offset="85%" stop-color="#CBD5E1" />
      <stop offset="100%" stop-color="#64748B" />
    </linearGradient>
  </defs>

  <rect width="512" height="512" rx="112" fill="url(#royalEmerald)"/>
  
  <rect x="24" y="24" width="464" height="464" rx="92" fill="none" stroke="url(#chromeSilver)" stroke-width="6" opacity="0.95"/>
  <rect x="34" y="34" width="444" height="444" rx="82" fill="none" stroke="#010704" stroke-width="2" opacity="0.4"/>

  <g stroke="#010805" stroke-width="6" stroke-linecap="round" stroke-linejoin="round" fill="none" opacity="0.7">
    <path d="M234 79 H282 V99 H234 Z" stroke-width="6"/>
    <path d="M258 99 V119"/>
    <path d="M248 122 L240 152 H252 Z"/>
    <path d="M268 122 L276 152 H264 Z"/>
    <path d="M252 152 V404" stroke-width="5"/>
    <path d="M264 152 V404" stroke-width="5"/>
    <path d="M258 156 C194 152 149 159 120 182" stroke-width="6.5"/>
    <path d="M258 156 C324 152 369 159 398 182" stroke-width="6.5"/>
    <path d="M120 182 L70 317 H170 Z" stroke-width="5"/>
    <path d="M70 317 C70 352 170 352 170 317" stroke-width="5"/>
    <rect x="100" y="249" width="40" height="48" rx="4" stroke-width="4"/>
    <path d="M398 182 L348 317 H448 Z" stroke-width="5"/>
    <path d="M348 317 C348 352 448 352 448 317" stroke-width="5"/>
    <path d="M398 226 L394 270 H402 Z" stroke-width="4"/>
    <path d="M204 422 H312" stroke-width="6"/>
    <path d="M224 434 H292" stroke-width="6"/>
    <path d="M208 448 H308" stroke-width="7"/>
    <path d="M178 464 H338" stroke-width="9"/>
    <path d="M162 482 H352" stroke-width="11"/>
  </g>

  <g stroke="url(#chromeSilver)" stroke-width="6" stroke-linecap="round" stroke-linejoin="round" fill="none">
    
    <path d="M232 75 H280 V95 H232 Z" stroke-width="6"/>
    <path d="M232 75 V95 M280 75 V95" stroke-width="3"/>
    <path d="M256 95 V115" stroke-width="6"/>

    <path d="M246 118 L238 148 H250 Z" stroke-width="4.5"/>
    <path d="M266 118 L274 148 H262 Z" stroke-width="4.5"/>

    <path d="M250 148 V400" stroke-width="5"/>
    <path d="M262 148 V400" stroke-width="5"/>

    <path d="M256 152 C190 148 145 155 116 178" stroke-width="6.5"/>
    <path d="M256 152 C322 148 367 155 396 178" stroke-width="6.5"/>

    <g id="left-scale-pan">
      <path d="M116 178 L66 313 H166 Z" stroke-width="5"/>
      <path d="M66 313 C66 348 166 348 166 313" stroke-width="5.5"/>
      <rect x="96" y="245" width="40" height="48" rx="4" stroke-width="4.5"/>
      <path d="M104 245 V293" stroke-width="2.5"/>
      <path d="M114 257 H128 M114 267 H128 M114 277 H128" stroke-width="2.5"/>
    </g>

    <g id="right-scale-pan">
      <path d="M396 178 L346 313 H446 Z" stroke-width="5"/>
      <path d="M346 313 C346 348 446 348 446 313" stroke-width="5.5"/>
      <path d="M396 222 L392 266 H400 Z" stroke-width="3.5"/>
      <path d="M384 266 H408" stroke-width="4.5"/>
      <path d="M396 266 V282" stroke-width="3.5"/>
      <circle cx="396" cy="286" r="1.5" fill="url(#chromeSilver)" stroke="none"/>
    </g>

    <circle cx="212" cy="408" r="9" stroke-width="4.5"/>
    <circle cx="300" cy="408" r="9" stroke-width="4.5"/>
    <path d="M202 408 H310" stroke-width="5.5"/>
    <path d="M222 420 H290" stroke-width="5.5"/>
    <path d="M206 434 H306" stroke-width="6.5"/>
    <path d="M176 450 H336" stroke-width="8.5"/>
    <path d="M160 468 H352" stroke-width="10.5"/>
  </g>
</svg>
